<mxfile host="app.diagrams.net" modified="2024-02-19T16:21:02.985Z" agent="Mozilla/5.0 (Windows NT 10.0; Win64; x64) AppleWebKit/537.36 (KHTML, like Gecko) Chrome/121.0.0.0 Safari/537.36" etag="Xi2NXmeZUwWPmpG-7ms1" version="23.1.5" type="device">
  <diagram name="Страница — 1" id="QD8C7tTG6nm_mXGDPQDl">
    <mxGraphModel dx="1105" dy="1804" grid="1" gridSize="10" guides="1" tooltips="1" connect="1" arrows="1" fold="1" page="1" pageScale="1" pageWidth="827" pageHeight="1169" math="0" shadow="0">
      <root>
        <mxCell id="0" />
        <mxCell id="1" parent="0" />
        <mxCell id="a_Ar6M0wO6uLuycAa49J-1" value="бд&lt;div&gt;&lt;br/&gt;&lt;/div&gt;" style="rounded=0;whiteSpace=wrap;html=1;" parent="1" vertex="1">
          <mxGeometry x="350" y="280" width="120" height="60" as="geometry" />
        </mxCell>
        <mxCell id="a_Ar6M0wO6uLuycAa49J-2" value="addData" style="ellipse;whiteSpace=wrap;html=1;aspect=fixed;" parent="1" vertex="1">
          <mxGeometry x="520" y="80" width="80" height="80" as="geometry" />
        </mxCell>
        <mxCell id="a_Ar6M0wO6uLuycAa49J-3" value="" style="endArrow=classic;html=1;rounded=0;entryX=0.941;entryY=-0.052;entryDx=0;entryDy=0;entryPerimeter=0;" parent="1" source="a_Ar6M0wO6uLuycAa49J-2" target="a_Ar6M0wO6uLuycAa49J-1" edge="1">
          <mxGeometry width="50" height="50" relative="1" as="geometry">
            <mxPoint x="490" y="290" as="sourcePoint" />
            <mxPoint x="540" y="240" as="targetPoint" />
          </mxGeometry>
        </mxCell>
        <mxCell id="a_Ar6M0wO6uLuycAa49J-4" value="removeData&lt;div&gt;&lt;br/&gt;&lt;/div&gt;" style="ellipse;whiteSpace=wrap;html=1;aspect=fixed;" parent="1" vertex="1">
          <mxGeometry x="334" y="80" width="80" height="80" as="geometry" />
        </mxCell>
        <mxCell id="a_Ar6M0wO6uLuycAa49J-5" value="" style="endArrow=classic;html=1;rounded=0;exitX=0.5;exitY=1;exitDx=0;exitDy=0;entryX=0.5;entryY=0;entryDx=0;entryDy=0;" parent="1" source="a_Ar6M0wO6uLuycAa49J-4" target="a_Ar6M0wO6uLuycAa49J-1" edge="1">
          <mxGeometry width="50" height="50" relative="1" as="geometry">
            <mxPoint x="520" y="310" as="sourcePoint" />
            <mxPoint x="570" y="260" as="targetPoint" />
          </mxGeometry>
        </mxCell>
        <mxCell id="a_Ar6M0wO6uLuycAa49J-6" value="CheckData" style="ellipse;whiteSpace=wrap;html=1;aspect=fixed;" parent="1" vertex="1">
          <mxGeometry x="190" y="160" width="80" height="80" as="geometry" />
        </mxCell>
        <mxCell id="a_Ar6M0wO6uLuycAa49J-8" value="" style="endArrow=classic;html=1;rounded=0;exitX=0;exitY=0;exitDx=0;exitDy=0;" parent="1" source="a_Ar6M0wO6uLuycAa49J-1" target="a_Ar6M0wO6uLuycAa49J-6" edge="1">
          <mxGeometry width="50" height="50" relative="1" as="geometry">
            <mxPoint x="460" y="310" as="sourcePoint" />
            <mxPoint x="510" y="260" as="targetPoint" />
          </mxGeometry>
        </mxCell>
        <mxCell id="a_Ar6M0wO6uLuycAa49J-11" value="printData&lt;div&gt;&lt;br/&gt;&lt;/div&gt;" style="ellipse;whiteSpace=wrap;html=1;aspect=fixed;" parent="1" vertex="1">
          <mxGeometry x="120" y="90" width="80" height="80" as="geometry" />
        </mxCell>
        <mxCell id="a_Ar6M0wO6uLuycAa49J-12" value="" style="endArrow=classic;html=1;rounded=0;exitX=0.36;exitY=0.053;exitDx=0;exitDy=0;exitPerimeter=0;" parent="1" source="a_Ar6M0wO6uLuycAa49J-6" target="a_Ar6M0wO6uLuycAa49J-11" edge="1">
          <mxGeometry width="50" height="50" relative="1" as="geometry">
            <mxPoint x="530" y="200" as="sourcePoint" />
            <mxPoint x="580" y="150" as="targetPoint" />
          </mxGeometry>
        </mxCell>
        <mxCell id="a_Ar6M0wO6uLuycAa49J-13" value="temorarry structure" style="shape=parallelogram;perimeter=parallelogramPerimeter;whiteSpace=wrap;html=1;fixedSize=1;" parent="1" vertex="1">
          <mxGeometry x="410" y="-90" width="160" height="70" as="geometry" />
        </mxCell>
        <mxCell id="a_Ar6M0wO6uLuycAa49J-14" value="" style="endArrow=classic;startArrow=classic;html=1;rounded=0;entryX=0.637;entryY=1.031;entryDx=0;entryDy=0;entryPerimeter=0;exitX=0.779;exitY=0.099;exitDx=0;exitDy=0;exitPerimeter=0;" parent="1" source="a_Ar6M0wO6uLuycAa49J-4" target="a_Ar6M0wO6uLuycAa49J-13" edge="1">
          <mxGeometry width="50" height="50" relative="1" as="geometry">
            <mxPoint x="380" y="100" as="sourcePoint" />
            <mxPoint x="430" y="50" as="targetPoint" />
            <Array as="points">
              <mxPoint x="370" y="50" />
            </Array>
          </mxGeometry>
        </mxCell>
        <mxCell id="a_Ar6M0wO6uLuycAa49J-15" value="" style="endArrow=classic;startArrow=classic;html=1;rounded=0;entryX=1;entryY=0.75;entryDx=0;entryDy=0;" parent="1" source="a_Ar6M0wO6uLuycAa49J-2" target="a_Ar6M0wO6uLuycAa49J-13" edge="1">
          <mxGeometry width="50" height="50" relative="1" as="geometry">
            <mxPoint x="380" y="100" as="sourcePoint" />
            <mxPoint x="430" y="50" as="targetPoint" />
            <Array as="points">
              <mxPoint x="470" y="30" />
            </Array>
          </mxGeometry>
        </mxCell>
        <mxCell id="a_Ar6M0wO6uLuycAa49J-16" value="id,name,date,user,hook" style="ellipse;shape=cloud;whiteSpace=wrap;html=1;" parent="1" vertex="1">
          <mxGeometry x="290" y="410" width="280" height="130" as="geometry" />
        </mxCell>
        <mxCell id="a_Ar6M0wO6uLuycAa49J-17" value="" style="shape=flexArrow;endArrow=classic;startArrow=classic;html=1;rounded=0;entryX=0.548;entryY=0.976;entryDx=0;entryDy=0;entryPerimeter=0;exitX=0.473;exitY=0.088;exitDx=0;exitDy=0;exitPerimeter=0;" parent="1" source="a_Ar6M0wO6uLuycAa49J-16" target="a_Ar6M0wO6uLuycAa49J-1" edge="1">
          <mxGeometry width="100" height="100" relative="1" as="geometry">
            <mxPoint x="410" y="410" as="sourcePoint" />
            <mxPoint x="510" y="310" as="targetPoint" />
          </mxGeometry>
        </mxCell>
        <mxCell id="mwRVVMJPG9YHthEBIu6b-2" value="questionData" style="ellipse;whiteSpace=wrap;html=1;aspect=fixed;" vertex="1" parent="1">
          <mxGeometry x="140" y="-50" width="80" height="80" as="geometry" />
        </mxCell>
        <mxCell id="mwRVVMJPG9YHthEBIu6b-3" value="" style="endArrow=classic;html=1;rounded=0;entryX=1;entryY=0;entryDx=0;entryDy=0;" edge="1" parent="1" source="mwRVVMJPG9YHthEBIu6b-2" target="a_Ar6M0wO6uLuycAa49J-11">
          <mxGeometry width="50" height="50" relative="1" as="geometry">
            <mxPoint x="490" y="220" as="sourcePoint" />
            <mxPoint x="540" y="170" as="targetPoint" />
          </mxGeometry>
        </mxCell>
        <mxCell id="mwRVVMJPG9YHthEBIu6b-4" value="" style="endArrow=classic;html=1;rounded=0;" edge="1" parent="1" source="mwRVVMJPG9YHthEBIu6b-2" target="a_Ar6M0wO6uLuycAa49J-4">
          <mxGeometry width="50" height="50" relative="1" as="geometry">
            <mxPoint x="490" y="220" as="sourcePoint" />
            <mxPoint x="540" y="170" as="targetPoint" />
          </mxGeometry>
        </mxCell>
        <mxCell id="mwRVVMJPG9YHthEBIu6b-5" value="" style="endArrow=classic;html=1;rounded=0;" edge="1" parent="1" source="mwRVVMJPG9YHthEBIu6b-2" target="a_Ar6M0wO6uLuycAa49J-2">
          <mxGeometry width="50" height="50" relative="1" as="geometry">
            <mxPoint x="490" y="220" as="sourcePoint" />
            <mxPoint x="540" y="170" as="targetPoint" />
          </mxGeometry>
        </mxCell>
      </root>
    </mxGraphModel>
  </diagram>
</mxfile>
